<?xml version="1.0" standalone="no"?>
<!DOCTYPE svg PUBLIC "-//W3C//DTD SVG 20010904//EN"
 "http://www.w3.org/TR/2001/REC-SVG-20010904/DTD/svg10.dtd">
<svg version="1.0" xmlns="http://www.w3.org/2000/svg"
 width="512.000000pt" height="512.000000pt" viewBox="0 0 512.000000 512.000000"
 preserveAspectRatio="xMidYMid meet">

<g transform="translate(0.000000,512.000000) scale(0.100000,-0.100000)"
fill="#000000" stroke="none">
<path d="M468 5104 c-16 -8 -29 -16 -30 -17 -1 -1 -4 -90 -7 -197 l-6 -195
-63 -5 c-106 -8 -102 5 -102 -366 l0 -314 -27 0 c-38 0 -122 -41 -157 -76 -15
-16 -38 -47 -50 -69 -21 -39 -21 -50 -24 -557 l-3 -516 24 -27 c17 -20 37 -30
76 -36 94 -15 153 -80 153 -169 0 -89 -59 -154 -153 -169 -39 -6 -59 -16 -76
-36 l-24 -27 3 -516 c3 -507 3 -518 24 -557 12 -22 35 -53 50 -69 35 -35 119
-76 157 -76 l27 0 0 -314 c0 -371 -4 -358 102 -366 l63 -5 5 -193 c5 -179 7
-195 25 -208 32 -24 67 -28 94 -13 45 26 51 51 51 242 l0 177 58 0 c63 1 86
13 102 54 6 17 10 144 10 327 l0 299 85 0 85 0 0 -315 0 -316 25 -24 c20 -21
34 -25 85 -25 l60 0 0 -186 0 -186 29 -29 c38 -38 74 -38 112 0 l29 29 0 186
0 186 60 0 c53 0 64 3 85 26 l25 27 0 313 0 314 85 0 85 0 0 -306 c0 -370 1
-373 113 -374 l57 0 0 -177 c0 -122 4 -186 13 -203 27 -54 97 -64 135 -19 14
16 18 49 22 207 l5 187 63 5 c106 8 102 -5 102 366 l0 314 84 0 85 0 3 -314 3
-314 24 -26 c21 -22 33 -26 83 -26 l58 0 0 -172 c0 -145 3 -179 18 -208 33
-66 111 -66 144 0 15 29 18 63 18 208 l0 172 58 0 c50 0 62 4 83 26 l24 26 3
314 3 314 85 0 84 0 0 -314 c0 -371 -4 -358 102 -366 l63 -5 5 -187 c4 -158 8
-191 22 -207 38 -45 108 -35 135 19 9 17 13 81 13 203 l0 177 58 0 c111 1 112
4 112 374 l0 306 85 0 85 0 0 -314 0 -313 25 -27 c21 -23 32 -26 85 -26 l60 0
0 -186 0 -186 29 -29 c18 -17 40 -29 56 -29 16 0 38 12 56 29 l29 29 0 186 0
186 60 0 c51 0 65 4 85 25 l25 24 0 316 0 315 85 0 85 0 0 -299 c0 -183 4
-310 10 -327 16 -41 39 -53 103 -54 l57 0 0 -177 c0 -191 6 -216 51 -242 27
-15 62 -11 94 13 18 13 20 29 25 208 l5 193 63 5 c106 8 102 -5 102 366 l0
314 28 0 c37 0 121 41 156 76 15 16 38 47 50 69 l21 40 0 1265 0 1265 -21 40
c-12 22 -35 53 -50 69 -35 35 -119 76 -156 76 l-28 0 0 314 c0 371 4 358 -102
366 l-63 5 -5 193 c-5 179 -7 195 -25 208 -32 24 -67 28 -94 13 -45 -26 -51
-51 -51 -241 l0 -178 -57 0 c-64 -1 -87 -13 -103 -54 -6 -17 -10 -144 -10
-327 l0 -299 -85 0 -85 0 0 315 0 316 -25 24 c-20 21 -34 25 -85 25 l-60 0 0
186 0 186 -29 29 c-38 38 -74 38 -112 0 l-29 -29 0 -186 0 -186 -60 0 c-53 0
-64 -3 -85 -26 l-25 -27 0 -313 0 -314 -85 0 -85 0 0 306 c0 370 -1 373 -112
374 l-58 0 0 178 c0 121 -4 185 -13 202 -27 54 -97 64 -135 19 -14 -16 -18
-49 -22 -207 l-5 -187 -63 -5 c-106 -8 -102 5 -102 -366 l0 -314 -84 0 -85 0
-3 314 -3 314 -24 26 c-21 22 -33 26 -83 26 l-58 0 0 173 c0 192 -10 233 -62
251 -41 14 -80 -3 -100 -44 -15 -29 -18 -63 -18 -207 l0 -173 -58 0 c-50 0
-62 -4 -83 -26 l-24 -26 -3 -314 -3 -314 -85 0 -84 0 0 314 c0 371 4 358 -102
366 l-63 5 -5 187 c-4 158 -8 191 -22 207 -38 45 -108 35 -135 -19 -9 -17 -13
-81 -13 -202 l0 -178 -57 0 c-112 -1 -113 -4 -113 -374 l0 -306 -85 0 -85 0 0
314 0 313 -25 27 c-21 23 -32 26 -85 26 l-60 0 0 186 0 186 -29 29 c-18 17
-40 29 -56 29 -16 0 -38 -12 -56 -29 l-29 -29 0 -186 0 -186 -60 0 c-51 0 -65
-4 -85 -25 l-25 -24 0 -316 0 -315 -85 0 -85 0 0 299 c0 183 -4 310 -10 327
-16 41 -39 53 -102 54 l-57 0 -3 191 -3 191 -28 24 c-32 27 -60 30 -99 8z
m130 -666 l-3 -83 -82 -3 -83 -3 0 86 0 85 85 0 86 0 -3 -82z m682 -3 l0 -85
-85 0 -85 0 0 85 0 85 85 0 85 0 0 -85z m680 0 l0 -85 -85 0 -85 0 0 85 0 85
85 0 85 0 0 -85z m680 0 l0 -85 -80 0 -80 0 0 85 0 85 80 0 80 0 0 -85z m690
0 l0 -85 -85 0 -85 0 0 85 0 85 85 0 85 0 0 -85z m680 0 l0 -85 -85 0 -85 0 0
85 0 85 85 0 85 0 0 -85z m680 0 l0 -86 -82 3 -83 3 -3 83 -3 82 86 0 85 0 0
-85z m-4090 -340 l0 -85 -85 0 -85 0 0 85 0 85 85 0 85 0 0 -85z m680 0 l0
-85 -85 0 -85 0 0 85 0 85 85 0 85 0 0 -85z m680 0 l0 -85 -85 0 -85 0 0 85 0
85 85 0 85 0 0 -85z m680 0 l0 -85 -80 0 -80 0 0 85 0 85 80 0 80 0 0 -85z
m690 0 l0 -85 -85 0 -85 0 0 85 0 85 85 0 85 0 0 -85z m680 0 l0 -85 -85 0
-85 0 0 85 0 85 85 0 85 0 0 -85z m680 0 l0 -85 -85 0 -85 0 0 85 0 85 85 0
85 0 0 -85z m79 -299 c8 -32 11 -364 11 -1135 l0 -1090 -24 24 c-13 13 -39 26
-57 30 -19 3 -187 5 -374 3 -373 -3 -375 -4 -395 -64 -12 -35 -6 -59 23 -91
l20 -23 379 0 379 0 24 25 25 24 0 -65 c0 -36 -5 -85 -11 -110 l-11 -44 -2250
0 c-2496 0 -2307 -5 -2327 67 -7 24 -11 192 -11 459 l0 421 38 11 c122 38 222
184 222 322 0 138 -100 284 -222 322 l-38 11 0 421 c0 266 4 435 11 459 8 29
18 42 42 52 27 12 389 14 2283 15 l2252 0 11 -44z m-4169 -2771 l0 -85 -85 0
-85 0 0 85 0 85 85 0 85 0 0 -85z m680 0 l0 -85 -85 0 -85 0 0 85 0 85 85 0
85 0 0 -85z m680 0 l0 -85 -85 0 -85 0 0 85 0 85 85 0 85 0 0 -85z m680 0 l0
-85 -80 0 -80 0 0 85 0 85 80 0 80 0 0 -85z m690 0 l0 -85 -85 0 -85 0 0 85 0
85 85 0 85 0 0 -85z m680 0 l0 -85 -85 0 -85 0 0 85 0 85 85 0 85 0 0 -85z
m680 0 l0 -85 -85 0 -85 0 0 85 0 85 85 0 85 0 0 -85z m-4092 -342 l3 -83 -86
0 -85 0 0 85 0 86 83 -3 82 -3 3 -82z m682 2 l0 -85 -85 0 -85 0 0 85 0 85 85
0 85 0 0 -85z m680 0 l0 -85 -85 0 -85 0 0 85 0 85 85 0 85 0 0 -85z m680 0
l0 -85 -80 0 -80 0 0 85 0 85 80 0 80 0 0 -85z m690 0 l0 -85 -85 0 -85 0 0
85 0 85 85 0 85 0 0 -85z m680 0 l0 -85 -85 0 -85 0 0 85 0 85 85 0 85 0 0
-85z m680 0 l0 -85 -85 0 -85 0 0 78 c0 43 3 82 7 85 3 4 42 7 85 7 l78 0 0
-85z"/>
<path d="M365 3645 c-52 -51 -20 -136 56 -150 19 -3 187 -5 374 -3 373 3 375
4 395 64 12 35 6 59 -23 92 l-20 22 -379 0 -379 0 -24 -25z"/>
<path d="M1393 3648 c-29 -33 -35 -57 -23 -93 14 -44 50 -60 131 -60 58 0 71
4 93 24 35 33 36 92 1 126 -21 22 -33 25 -103 25 -69 0 -81 -3 -99 -22z"/>
<path d="M2380 3485 c-231 -52 -416 -165 -555 -337 -98 -124 -157 -253 -191
-418 -21 -106 -15 -301 14 -405 93 -342 350 -594 692 -681 105 -27 335 -27
440 0 347 88 608 349 696 696 29 113 27 346 -4 454 -51 177 -128 312 -247 431
-118 118 -243 190 -415 242 -108 32 -327 41 -430 18z m90 -245 l0 -80 -192 0
-193 0 25 20 c75 58 249 128 348 139 9 1 12 -21 12 -79z m332 44 c72 -24 166
-71 208 -104 l25 -20 -192 0 -193 0 0 81 0 81 42 -7 c23 -4 72 -18 110 -31z
m-72 -724 l0 -80 -170 0 -170 0 0 80 0 80 170 0 170 0 0 -80z m-260 -681 l0
-81 -42 7 c-94 16 -251 83 -318 135 l-25 20 193 0 192 0 0 -81z m540 61 c-66
-52 -225 -118 -322 -135 l-38 -6 0 81 0 80 193 0 192 0 -25 -20z"/>
<path d="M3565 1623 c-65 -17 -88 -101 -40 -148 21 -22 33 -25 103 -25 69 0
81 3 99 23 11 12 23 31 27 41 9 27 -10 79 -36 95 -23 14 -120 23 -153 14z"/>
</g>
</svg>
